# xmcd
#
# Track frame offsets: 
#        150
#        21794
#        39345
#        57832
#        76462
#        94652
#        113388
#        131356
#        147684
#        165278
#        180525
#        197216
#        218370
#        242755
#        267163
#        287506
#        307261
#
# Disc length: 4353 seconds
#
# Revision: 0
# Processed by: cddbd v1.5.1PL2 Copyright (c) Steve Scherf et al.
# Submitted via: ExactAudioCopy v0.95a5
#
DISCID=e210ff11
DTITLE=Mary J. Blige - The Breakthrough
DYEAR=2005
DGENRE=R&B
TTITLE0=No One Will Do
TTITLE1=Enough Cryin (Feat Brook)
TTITLE2=About You (Feat William)
TTITLE3=Be Without You
TTITLE4=Gonna Breakthrough (Feat Brook)
TTITLE5=Good Woman Down
TTITLE6=Take Me As I Am
TTITLE7=Baggage
TTITLE8=Can`t Hide From Luv (Feat Jay-Z)
TTITLE9=Mjb Da Mvp
TTITLE10=Can`t Get Enough
TTITLE11=Ain`t Really Love
TTITLE12=I Found My Everything (Feat Raphael Saadiq)
TTITLE13=Father In You
TTITLE14=Alone (Feat Dave Young)
TTITLE15=One (Feat U2)
TTITLE16=So Lady (Feat Raphael Saadiq)
EXTD=
EXTT0=
EXTT1=
EXTT2=
EXTT3=
EXTT4=
EXTT5=
EXTT6=
EXTT7=
EXTT8=
EXTT9=
EXTT10=
EXTT11=
EXTT12=
EXTT13=
EXTT14=
EXTT15=
EXTT16=
PLAYORDER=
